<?xml version="1.0" encoding="utf-8"?>
<!-- Generator: Adobe Illustrator 28.1.0, SVG Export Plug-In . SVG Version: 6.00 Build 0)  -->
<svg version="1.1" id="svg39788" xmlns="http://www.w3.org/2000/svg" xmlns:xlink="http://www.w3.org/1999/xlink" x="0px" y="0px"
	 viewBox="0 0 940.9 931.5" style="enable-background:new 0 0 940.9 931.5;" xml:space="preserve">
<style type="text/css">
	.st0{fill:#FF9E18;}
	.st1{enable-background:new    ;}
	.st2{fill:#FFF7ED;}
</style>
<g id="layer1">
	<g id="g26541">
		<path id="path26543" class="st0" d="M470.5,0L344.6,166L138,136.9l29.4,204.7L0,466.1l167.4,124.5L138,795.2l207.4-29.2
			l125.6,165.5l125.5-165.4l207,29.1l-29.5-205.8l167-124.2L774.4,341.4l29.4-204.9l-207.5,29.2L470.5,0z"/>
	</g>
	<g>
		<g class="st1">
		</g>
	</g>
	<g>
		<g class="st1">
			<path class="st2" d="M352,466.7c-8.9,1.9-17,2.3-24.2,1.2c-7.2-1.1-13.2-3.9-18-8.4c-4.8-4.5-8.1-10.8-9.9-19l26.6-5.6
				c0.8,2.9,2.2,5.3,4,7.1c1.8,1.8,4.2,2.9,6.9,3.4c2.8,0.5,6,0.4,9.6-0.4c3-0.6,5.4-1.5,7.3-2.7c1.9-1.1,3.2-2.4,4-3.9
				c0.8-1.5,1-3,0.6-4.6c-0.3-1.5-1.1-2.7-2.3-3.6c-1.2-0.9-3.1-1.6-5.5-2c-2.5-0.4-5.7-0.6-9.7-0.6l-10.8,0.1
				c-9.5,0.1-17.3-1.5-23.5-4.9c-6.2-3.3-10.1-8.9-11.7-16.6c-1.3-6.2-0.7-12.1,1.8-17.5c2.6-5.4,6.7-10.1,12.4-14.1
				c5.7-3.9,12.6-6.8,20.8-8.5c8.3-1.8,15.8-2,22.5-0.6c6.6,1.4,12.1,4.1,16.4,8.2c4.3,4.1,7.2,9.4,8.6,15.8l-26.8,5.7
				c-0.9-3.2-2.7-5.4-5.3-6.7c-2.6-1.3-6.2-1.5-10.7-0.5c-2.9,0.6-5.1,1.4-6.9,2.5c-1.7,1-2.9,2.2-3.5,3.5c-0.6,1.3-0.8,2.7-0.5,4.2
				c0.3,1.5,1.1,2.8,2.3,3.8c1.2,1,2.9,1.7,5.1,2.1c2.2,0.4,5,0.6,8.4,0.6l8.8-0.1c5.9-0.1,11.1,0.4,15.6,1.4
				c4.5,1,8.3,2.5,11.4,4.5c3.1,2,5.7,4.4,7.6,7.3c1.9,2.9,3.2,6.2,4,10c1.4,6.5,0.9,12.3-1.5,17.5c-2.4,5.2-6.4,9.6-12.2,13.3
				C368,462.1,360.7,464.8,352,466.7z"/>
			<path class="st2" d="M423.6,451.4c-4.9,1-9.5,1.2-13.6,0.4c-4.1-0.7-7.6-2.5-10.4-5.2c-2.8-2.7-4.7-6.5-5.7-11.4
				c-0.9-4-0.9-7.6-0.1-10.8c0.8-3.2,2.3-5.9,4.5-8.3c2.2-2.4,4.9-4.4,8.1-6.1c3.2-1.7,6.8-3.1,10.8-4.3c4.3-1.2,7.7-2.3,10.2-3.3
				c2.5-1,4.3-2,5.3-3.1c1-1.1,1.3-2.4,1-3.8l-0.1-0.3c-0.3-1.3-0.9-2.3-1.8-3c-0.9-0.7-2-1.2-3.4-1.4c-1.4-0.2-3-0.1-4.8,0.3
				c-1.8,0.4-3.3,1-4.6,1.7c-1.3,0.8-2.4,1.8-3.1,2.9c-0.7,1.2-1.1,2.5-1.1,4.1l-25.6,3c-0.1-4.3,0.9-8.4,3-12.4
				c2.1-4,5.5-7.5,10.1-10.6c4.6-3.1,10.6-5.4,17.8-7c5.5-1.2,10.6-1.6,15.3-1.3c4.7,0.3,8.9,1.2,12.5,2.7c3.6,1.5,6.6,3.6,8.9,6.1
				c2.3,2.6,3.8,5.5,4.5,8.9l10.7,50.5l-26,5.5L444,435l-0.6,0.1c-1,3.1-2.4,5.7-4.2,7.9c-1.8,2.2-4,3.9-6.6,5.3
				C430,449.7,427,450.7,423.6,451.4z M429.1,432.8c2.1-0.5,4-1.3,5.7-2.5c1.7-1.2,3-2.8,3.8-4.6c0.8-1.8,1-3.8,0.6-6.1l-1.3-6.1
				c-0.7,0.4-1.4,0.9-2.2,1.3c-0.8,0.4-1.6,0.9-2.5,1.3c-0.9,0.4-1.8,0.8-2.8,1.2c-1,0.4-2,0.8-3,1.2c-2.1,0.8-3.8,1.7-5,2.7
				c-1.2,1-2,2.1-2.4,3.3c-0.4,1.2-0.5,2.4-0.2,3.7c0.3,1.4,0.9,2.4,1.8,3.2c0.9,0.8,2,1.3,3.3,1.5
				C426.1,433.2,427.5,433.1,429.1,432.8z"/>
			<path class="st2" d="M504.8,433l-43.2-67.8l29.2-6.2l17.2,31.5c2.5,4.7,4.9,9.5,7.2,14.4c2.2,5,4.6,10.4,7,16.2l-4.4,0.9
				c-0.2-6.3-0.3-12.2-0.3-17.6c0-5.4,0.2-10.8,0.6-16.1l2.6-35.7l28.8-6.1l-12,79.6L504.8,433z"/>
			<path class="st2" d="M607.6,412.5c-8.3,1.8-15.7,1.8-22.3,0c-6.6-1.7-12.1-5.1-16.5-10.1c-4.4-5-7.4-11.5-9.1-19.4
				c-1.6-7.6-1.4-14.6,0.6-21c2-6.4,5.6-11.8,10.8-16.2c5.2-4.4,11.8-7.5,19.8-9.2c5.9-1.2,11.3-1.5,16.4-0.8s9.7,2.4,13.7,4.9
				c4.1,2.6,7.5,6,10.3,10.2s4.8,9.4,6.1,15.2l1.3,6.1l-69.1,14.7l-3.1-14.5l56-11.9l-12.4,5.8c-0.6-3-1.6-5.4-3-7.3
				c-1.4-1.8-3-3.1-5.1-3.8s-4.4-0.8-7.1-0.2c-2.7,0.6-4.8,1.6-6.4,3c-1.6,1.5-2.6,3.3-3.1,5.5c-0.5,2.2-0.4,4.9,0.2,7.8l2.2,10.5
				c0.7,3.3,1.8,5.8,3.3,7.7s3.4,3.2,5.6,3.8c2.2,0.6,4.6,0.6,7.2,0.1c1.9-0.4,3.6-1,5-1.9c1.4-0.8,2.6-1.8,3.5-3
				c0.9-1.2,1.5-2.5,1.8-4l25.2-1.8c-0.4,4.7-1.8,9-4.4,12.9c-2.6,3.9-6.2,7.3-10.8,10.1S614.2,411.1,607.6,412.5z"/>
		</g>
	</g>
	<g>
		<g class="st1">
		</g>
	</g>
	<g>
		<g class="st1">
		</g>
	</g>
	<g>
		<g class="st1">
			<path class="st2" d="M377.3,586.2c-8.1,1.7-15.6,1.9-22.5,0.6c-6.9-1.3-12.6-3.9-17.2-7.9c-4.6-3.9-7.5-9-8.8-15.1l28.1-6
				c0.4,1.9,1.4,3.4,2.9,4.7c1.5,1.2,3.4,2,5.7,2.4c2.3,0.4,4.8,0.3,7.5-0.3c2.6-0.5,4.8-1.5,6.5-2.8c1.8-1.3,3-2.8,3.8-4.6
				c0.8-1.8,0.9-3.7,0.5-5.7c-0.4-2-1.4-3.7-3-4.9c-1.6-1.2-3.6-2.1-6.1-2.4c-2.5-0.4-5.2-0.2-8.3,0.4l-10.5,2.2l-3.9-18.5l10.5-2.2
				c2.8-0.6,5.1-1.5,7.1-2.9c1.9-1.3,3.3-2.9,4.2-4.7c0.9-1.8,1.1-3.6,0.7-5.6c-0.4-1.9-1.3-3.5-2.6-4.8c-1.3-1.2-3-2.1-4.9-2.5
				c-2-0.5-4.1-0.4-6.5,0.1c-2.6,0.5-4.8,1.5-6.6,2.7c-1.8,1.3-3.1,2.8-3.9,4.6c-0.8,1.8-1,3.6-0.6,5.7l-26.8,5.7
				c-1.3-6-0.7-11.7,1.8-17c2.5-5.3,6.4-10,11.9-13.9c5.5-3.9,12.1-6.7,19.9-8.3c7.6-1.6,14.6-1.8,21-0.6c6.4,1.2,11.7,3.6,15.9,7.2
				c4.2,3.6,6.9,8.2,8.1,13.7c1.2,5.4,0.1,10.4-3.1,14.7c-3.2,4.4-7.9,7.6-13.9,9.5l0.1,0.7c5.7-0.6,10.5-0.3,14.7,0.9
				c4.1,1.2,7.4,3.2,9.9,5.9c2.5,2.8,4.2,6.1,5,10.1c1.2,5.8,0.5,11.2-2.2,16.5c-2.7,5.2-7,9.8-12.9,13.7
				C392.9,581.6,385.7,584.4,377.3,586.2z"/>
			<path class="st2" d="M475.4,565.4c-9.5,2-18.1,1.8-25.8-0.8c-7.6-2.6-14.1-7.2-19.3-13.9c-5.2-6.7-8.9-15.4-11.2-26
				c-2.3-10.6-2.4-20-0.3-28.3c2-8.3,6-15.2,11.9-20.6c5.9-5.4,13.7-9.2,23.2-11.2c9.5-2,18.2-1.8,25.8,0.8
				c7.7,2.6,14.1,7.2,19.3,14c5.2,6.7,8.9,15.4,11.2,26c2.2,10.6,2.4,20,0.4,28.3c-2,8.3-6,15.1-11.9,20.5
				C492.8,559.6,485,563.3,475.4,565.4z M470.8,543.7c3.6-0.8,6.3-2.5,8.3-5.2c2-2.7,3.1-6.4,3.5-10.9c0.4-4.6-0.1-9.9-1.4-16.1
				c-1.3-6.2-3.1-11.4-5.3-15.4c-2.2-4-4.7-6.9-7.7-8.6c-2.9-1.7-6.2-2.2-9.7-1.4c-3.5,0.7-6.3,2.5-8.2,5.3c-2,2.8-3.2,6.4-3.5,11
				c-0.4,4.6,0.1,10,1.5,16.2c1.3,6.2,3.1,11.3,5.2,15.3c2.2,4,4.7,6.9,7.6,8.5C464,544,467.3,544.5,470.8,543.7z"/>
			<path class="st2" d="M549.8,497.6c-5.3,1.1-9.9,1-14-0.3c-4.1-1.3-7.4-3.6-10-6.7c-2.6-3.1-4.4-6.7-5.2-10.9l-1.1-5.1
				c-0.9-4.2-0.8-8.3,0.4-12.2c1.2-3.9,3.3-7.3,6.5-10.2s7.4-4.9,12.5-6c5.3-1.1,10.1-1,14.1,0.3c4.1,1.3,7.4,3.6,10,6.7
				c2.6,3.1,4.4,6.8,5.3,11l1.1,5.1c0.9,4.2,0.8,8.3-0.4,12.2c-1.1,3.9-3.3,7.3-6.5,10.1C559.3,494.5,555.1,496.5,549.8,497.6z
				 M546.6,482.6c2.8-0.6,4.4-1.8,4.9-3.7c0.5-1.9,0.6-3.8,0.2-5.7l-1.1-5.1c-0.4-1.9-1.2-3.7-2.4-5.3c-1.2-1.6-3.3-2.1-6.1-1.5
				c-2.7,0.6-4.3,1.9-4.7,3.9c-0.5,2.1-0.5,4-0.1,5.8l1.1,5.1c0.4,1.9,1.3,3.7,2.5,5.2C542.1,482.6,544,483.1,546.6,482.6z
				 M555.4,547l50-113.2l16.6-3.5l-50,113.2L555.4,547z M639,530.8c-5.3,1.1-9.9,1-14-0.3c-4.1-1.3-7.4-3.6-10-6.7
				c-2.6-3.1-4.4-6.7-5.2-10.9l-1.1-5.1c-0.9-4.2-0.8-8.3,0.4-12.2c1.2-3.9,3.3-7.3,6.5-10.2c3.2-2.9,7.4-4.9,12.5-6
				c5.3-1.1,10.1-1,14.1,0.3c4.1,1.3,7.4,3.6,10,6.7c2.6,3.1,4.4,6.8,5.3,11l1.1,5.1c0.9,4.2,0.8,8.3-0.4,12.2
				c-1.2,3.9-3.3,7.3-6.5,10.1C648.5,527.7,644.3,529.7,639,530.8z M635.8,515.8c2.8-0.6,4.4-1.8,4.9-3.7c0.5-1.9,0.6-3.8,0.2-5.7
				l-1.1-5.1c-0.4-1.9-1.2-3.7-2.4-5.3c-1.2-1.6-3.2-2.1-6.1-1.5c-2.7,0.6-4.3,1.9-4.7,3.9c-0.5,2.1-0.5,4-0.1,5.8l1.1,5.1
				c0.4,1.9,1.3,3.7,2.5,5.2C631.3,515.9,633.2,516.4,635.8,515.8z"/>
		</g>
	</g>
</g>
</svg>
