<?xml version="1.0" encoding="utf-8"?>
<!-- Generator: Adobe Illustrator 24.0.2, SVG Export Plug-In . SVG Version: 6.00 Build 0)  -->
<svg version="1.1" id="DELL_logotype" xmlns:svg="http://www.w3.org/2000/svg"
	 xmlns="http://www.w3.org/2000/svg" xmlns:xlink="http://www.w3.org/1999/xlink" x="0px" y="0px" viewBox="0 0 400 126.9"
	 style="enable-background:new 0 0 400 126.9;" xml:space="preserve">
<style type="text/css">
	.st0{fill-rule:evenodd;clip-rule:evenodd;fill:#9FA6B2;}
</style>
<g id="DELL__x28_tm_x29_" transform="translate(-66.45031,-175.0199)">
	<path id="D" class="st0" d="M66.5,182v114.7h54.9c24.1,0,55-15.4,55-57.4c0-46-35.9-57.3-68.7-57.3H66.5z M107,217.4h7.1
		c11.1,0,20.5,9.6,20.7,22.4c0,0,0,0,0,0c-0.1,12.9-8.6,22.4-19.7,22.4H107V217.4z"/>
	<path id="L1" class="st0" d="M306.3,182v114.7h75.9v-36.3h-35.8V182H306.3z"/>
	<path id="O" class="st0" d="M270.2,199.4l-56.1,35.4l-9.8-6.6l0,0l57.4-36.5l0.1,0.1L235.6,175l-99.9,63.6L236.1,302l99.2-63.2
		l-28.7-17.5l-57.2,36l-9.6-6.5l55.6-35.3L270.2,199.4z"/>
	<path id="L2" class="st0" d="M389.4,181.9v114.6h75.9v-36.1h-35.8v-78.4H389.4z"/>
</g>
</svg>
