<?xml version="1.0" encoding="utf-8"?>
<!-- Generator: Adobe Illustrator 24.0.2, SVG Export Plug-In . SVG Version: 6.00 Build 0)  -->
<svg version="1.1" id="Layer_1" xmlns="http://www.w3.org/2000/svg" xmlns:xlink="http://www.w3.org/1999/xlink" x="0px" y="0px"
	 viewBox="0 0 594.7 112.5" style="enable-background:new 0 0 594.7 112.5;" xml:space="preserve">
<style type="text/css">
	.st0{fill:#9FA6B2;}
</style>
<polyline class="st0" points="267.5,112.1 267.5,30.9 342.5,112.1 394.9,112.1 394.9,0.9 351.7,0.9 351.7,85 272.4,0.9 223.6,0.9 
	223.6,112.1 267.5,112.1 "/>
<path class="st0" d="M594.4,112l0-20.9l-108.5,0c-16.9-0.3-15.1-10.6-15.1-18.3l-0.1-28.4c0-7.6-1.8-20.3,15.1-23.2h108.9V1H462.1
	c-29.4,0-45.6,27.1-45.6,57c0,29,11.2,54.1,44.2,54.1L594.4,112"/>
<path class="st0" d="M50.5,112.4C12.8,112.4,0,87,0,57.7C0,27.4,18.4,0,52.1,0h142.8v20.5H73.1C53.8,23.5,55.8,36.3,55.8,44L56,72.7
	c0,7.7-1.8,21.6,17.2,20.5l69,0.1c5.6-2.5,10.4-9.3,10.4-14.7V67.9h-52.1v-20h93.9v64.6L50.5,112.4"/>
</svg>
