<svg xmlns="http://www.w3.org/2000/svg" id="Layer_1" x="0" y="0" enable-background="new 0 0 335 43" version="1.1" viewBox="0 0 335 43" xml:space="preserve"><style>.st0{fill:#002D5D;} .st1{fill:#FF9E18;} .st2{fill:none;stroke:#FFFFFF;stroke-width:2;stroke-miterlimit:10;} .st3{fill:none;stroke:#002D5D;stroke-width:0.5;stroke-miterlimit:10;} .st4{fill:#98989A;}</style><path d="M.85 24.69V1.21h6.31v18.36h11.46v5.12H.85zM95.16 24.69V1.21h6.31v18.36h11.46v5.12H95.16zM22.79 24.69l9.1-23.48h4.43l9.06 23.48h-5.8l-1.28-3.76h-8.43l-1.28 3.76H22.79zM34.09 9.18l-3.35 8.01h6.63L34.09 9.18zM48.87 24.69V1.21h11.9c1.13 0 2.17.23 3.12.69.94.46 1.75 1.07 2.43 1.82.68.75 1.21 1.6 1.6 2.55s.58 1.91.58 2.88c0 1.04-.18 2.03-.55 2.98-.37.95-.88 1.8-1.53 2.55-.66.75-1.45 1.35-2.38 1.79-.93.44-1.97.66-3.1.66H54.9v7.57H48.87zM54.9 12.39h5.7c.64 0 1.2-.28 1.67-.83.47-.55.7-1.36.7-2.41 0-.55-.07-1.02-.22-1.42-.14-.4-.34-.73-.58-.99-.24-.26-.52-.46-.83-.58-.31-.12-.62-.18-.93-.18h-5.5V12.39zM90.15 19.93v4.76H71.31V1.21h18.84v4.76H76.78v4.56h13.38v4.4H76.78v4.99H90.15zM118.11 24.69V1.21h10.1c1.13 0 2.17.23 3.12.69.94.46 1.75 1.07 2.43 1.82.68.75 1.21 1.6 1.6 2.55s.58 1.91.58 2.88c0 1.04-.18 2.03-.55 2.98-.37.95-.88 1.8-1.53 2.55-.66.75-1.45 1.35-2.38 1.79-.93.44-1.97.66-3.1.66h-4.8v7.57H118.11zM123.57 12.39h4.47c.64 0 1.2-.28 1.67-.83.47-.55.7-1.36.7-2.41 0-.55-.07-1.02-.22-1.42-.14-.4-.34-.73-.58-.99-.24-.26-.52-.46-.83-.58-.31-.12-.62-.18-.93-.18h-4.27V12.39zM139.59 24.69V1.21h7.13v23.48H139.59zM157.05 12.66v12.03h-6.46V1.21h6.46l8.17 12.58V1.21h6.89v23.48h-6.89L157.05 12.66zM192.44 8.09c-.1-.09-.36-.25-.78-.5-.43-.24-.96-.5-1.6-.76-.64-.26-1.34-.5-2.09-.69-.76-.2-1.51-.3-2.27-.3-.99 0-1.76.17-2.29.5-.53.33-.8.82-.8 1.45 0 .4.12.73.35.99.24.26.57.5 1.01.71.44.21.98.4 1.63.58.65.18 1.4.38 2.25.6 1.21.31 2.29.64 3.26 1.01.97.36 1.8.82 2.48 1.36.69.54 1.21 1.2 1.58 1.97.37.77.55 1.7.55 2.78 0 1.32-.27 2.44-.8 3.36-.53.91-1.24 1.65-2.11 2.22-.88.56-1.89.97-3.03 1.22-1.15.25-2.32.38-3.53.38-.92 0-1.86-.07-2.82-.2-.96-.13-1.9-.32-2.82-.58-.92-.25-1.82-.56-2.7-.91-.88-.35-1.68-.76-2.41-1.22l2.55-4.73c.12.11.44.32.96.63.52.31 1.16.62 1.92.93.76.31 1.61.58 2.55.83.94.24 1.9.36 2.87.36 2.06 0 3.09-.58 3.09-1.75 0-.44-.15-.8-.46-1.09-.31-.29-.73-.55-1.28-.78-.54-.23-1.18-.45-1.91-.64-.73-.2-1.54-.42-2.41-.66-1.16-.33-2.16-.69-3.01-1.08-.85-.39-1.57-.83-2.13-1.34-.57-.51-.99-1.09-1.26-1.75-.27-.66-.41-1.43-.41-2.31 0-1.23.25-2.33.74-3.27.5-.95 1.17-1.75 2.02-2.4.85-.65 1.84-1.14 2.97-1.47 1.12-.33 2.31-.5 3.56-.5.9 0 1.77.08 2.62.23.85.15 1.66.35 2.43.6.77.24 1.5.52 2.18.83.69.31 1.3.62 1.84.93L192.44 8.09z" class="st0"/><path d="M268.2 24.69V1.21h7.13v23.48H268.2zM285.98 12.66v12.03h-6.46V1.21h6.46l8.17 12.58V1.21h6.89v23.48h-6.89L285.98 12.66zM321.57 8.09c-.1-.09-.36-.25-.78-.5-.43-.24-.96-.5-1.6-.76-.64-.26-1.34-.5-2.09-.69-.76-.2-1.51-.3-2.27-.3-.99 0-1.76.17-2.29.5-.53.33-.8.82-.8 1.45 0 .4.12.73.35.99.24.26.57.5 1.01.71.44.21.98.4 1.63.58.65.18 1.4.38 2.25.6 1.21.31 2.29.64 3.26 1.01.97.36 1.8.82 2.48 1.36.69.54 1.21 1.2 1.58 1.97s.55 1.7.55 2.78c0 1.32-.27 2.44-.8 3.36-.53.91-1.24 1.65-2.11 2.22-.88.56-1.89.97-3.03 1.22-1.15.25-2.32.38-3.53.38-.92 0-1.86-.07-2.82-.2-.96-.13-1.9-.32-2.82-.58-.92-.25-1.82-.56-2.7-.91-.88-.35-1.68-.76-2.41-1.22l2.55-4.73c.12.11.44.32.96.63.52.31 1.16.62 1.92.93.76.31 1.61.58 2.55.83.94.24 1.9.36 2.87.36 2.06 0 3.09-.58 3.09-1.75 0-.44-.15-.8-.46-1.09-.31-.29-.73-.55-1.28-.78-.54-.23-1.18-.45-1.91-.64-.73-.2-1.54-.42-2.41-.66-1.16-.33-2.16-.69-3.01-1.08-.85-.39-1.57-.83-2.13-1.34-.57-.51-.99-1.09-1.26-1.75-.27-.66-.41-1.43-.41-2.31 0-1.23.25-2.33.74-3.27.5-.95 1.17-1.75 2.02-2.4.85-.65 1.84-1.14 2.97-1.47 1.12-.33 2.31-.5 3.56-.5.9 0 1.77.08 2.62.23.85.15 1.66.35 2.43.6.77.24 1.5.52 2.18.83.69.31 1.3.62 1.84.93L321.57 8.09zM235.09 17.44c-.19.36-.4.69-.66.96-.38.41-.81.74-1.29 1-.48.26-.98.44-1.49.57-.52.12-1.01.18-1.49.18-.93 0-1.78-.19-2.55-.58-.77-.39-1.42-.91-1.96-1.58s-.96-1.43-1.26-2.29c-.3-.86-.45-1.76-.45-2.69 0-.86.13-1.72.38-2.56.25-.84.63-1.6 1.13-2.26s1.14-1.21 1.9-1.63c.77-.42 1.68-.63 2.73-.63.45 0 .94.05 1.46.15.51.1 1.01.28 1.49.53.48.25.92.59 1.33 1 .12.12.21.26.32.4l4.37-3.04c-.75-.96-1.71-1.78-2.9-2.46-1.68-.95-3.65-1.43-5.93-1.43-1.94 0-3.67.34-5.19 1.03-1.52.69-2.81 1.58-3.86 2.69-1.05 1.11-1.86 2.37-2.41 3.77-.55 1.41-.83 2.82-.83 4.24 0 1.51.3 2.99.9 4.45s1.43 2.77 2.5 3.92c1.07 1.15 2.33 2.08 3.81 2.77 1.47.7 3.1 1.05 4.87 1.05 1.01 0 2.03-.12 3.07-.37 1.04-.24 2.03-.6 2.96-1.06.93-.47 1.77-1.04 2.5-1.73.56-.53 1.02-1.12 1.38-1.75L235.09 17.44zM253.1 25.02c-1.82 0-3.47-.34-4.96-1.02s-2.76-1.58-3.83-2.7c-1.07-1.11-1.89-2.39-2.48-3.82-.59-1.43-.88-2.91-.88-4.43 0-1.54.31-3.03.92-4.46.61-1.43 1.46-2.69 2.55-3.79 1.09-1.09 2.38-1.96 3.88-2.61 1.5-.65 3.13-.98 4.9-.98 1.82 0 3.47.34 4.96 1.03 1.48.68 2.76 1.59 3.83 2.71s1.89 2.4 2.46 3.84c.58 1.43.86 2.89.86 4.37 0 1.54-.3 3.03-.92 4.46-.61 1.43-1.46 2.69-2.53 3.79-1.08 1.09-2.37 1.97-3.86 2.63C256.5 24.69 254.87 25.02 253.1 25.02zM246.95 13.12c0 .9.14 1.78.41 2.63.28.85.67 1.6 1.19 2.27.52.66 1.16 1.19 1.94 1.59.78.4 1.67.6 2.68.6 1.03 0 1.93-.21 2.69-.63.77-.42 1.41-.96 1.92-1.64.51-.67.9-1.43 1.15-2.28.25-.85.38-1.71.38-2.6 0-.9-.14-1.78-.41-2.63-.28-.85-.68-1.6-1.2-2.25-.53-.65-1.17-1.17-1.94-1.55-.77-.39-1.64-.58-2.62-.58-1.03 0-1.93.2-2.69.61-.77.41-1.41.94-1.92 1.6-.52.66-.9 1.42-1.17 2.27C247.08 11.37 246.95 12.23 246.95 13.12z" class="st1"/><g><path d="M301.06,35.22c-0.08,0.23-0.18,0.44-0.3,0.62c-0.19,0.27-0.41,0.51-0.67,0.7c-0.26,0.19-0.53,0.34-0.83,0.46 c-0.29,0.12-0.58,0.19-0.86,0.24c-0.55,0.08-1.06,0.04-1.55-0.12c-0.48-0.16-0.91-0.41-1.28-0.76c-0.37-0.34-0.69-0.76-0.94-1.24 c-0.25-0.48-0.42-0.99-0.5-1.54c-0.07-0.51-0.07-1.02,0-1.53c0.07-0.52,0.23-0.99,0.47-1.42c0.24-0.43,0.56-0.81,0.98-1.12 c0.41-0.31,0.93-0.52,1.55-0.61c0.27-0.04,0.56-0.05,0.87-0.04c0.31,0.01,0.62,0.08,0.92,0.18c0.3,0.11,0.59,0.26,0.87,0.47 c0.08,0.06,0.15,0.14,0.22,0.21l2.3-2.16c-0.53-0.5-1.16-0.9-1.91-1.19c-1.07-0.41-2.27-0.52-3.6-0.32 c-1.14,0.17-2.12,0.52-2.95,1.05c-0.83,0.53-1.51,1.17-2.03,1.91c-0.52,0.74-0.88,1.55-1.08,2.42c-0.2,0.87-0.24,1.73-0.12,2.56 c0.13,0.88,0.43,1.73,0.91,2.53c0.48,0.81,1.08,1.5,1.8,2.08c0.72,0.58,1.55,1.02,2.47,1.3c0.92,0.28,1.91,0.35,2.94,0.19 c0.59-0.09,1.18-0.25,1.77-0.48c0.59-0.23,1.14-0.53,1.65-0.88c0.51-0.35,0.95-0.76,1.31-1.23c0.29-0.36,0.5-0.74,0.66-1.15 L301.06,35.22z" class="st2"/><path d="M301.06,35.22c-0.08,0.23-0.18,0.44-0.3,0.62c-0.19,0.27-0.41,0.51-0.67,0.7c-0.26,0.19-0.53,0.34-0.83,0.46 c-0.29,0.12-0.58,0.19-0.86,0.24c-0.55,0.08-1.06,0.04-1.55-0.12c-0.48-0.16-0.91-0.41-1.28-0.76c-0.37-0.34-0.69-0.76-0.94-1.24 c-0.25-0.48-0.42-0.99-0.5-1.54c-0.07-0.51-0.07-1.02,0-1.53c0.07-0.52,0.23-0.99,0.47-1.42c0.24-0.43,0.56-0.81,0.98-1.12 c0.41-0.31,0.93-0.52,1.55-0.61c0.27-0.04,0.56-0.05,0.87-0.04c0.31,0.01,0.62,0.08,0.92,0.18c0.3,0.11,0.59,0.26,0.87,0.47 c0.08,0.06,0.15,0.14,0.22,0.21l2.3-2.16c-0.53-0.5-1.16-0.9-1.91-1.19c-1.07-0.41-2.27-0.52-3.6-0.32 c-1.14,0.17-2.12,0.52-2.95,1.05c-0.83,0.53-1.51,1.17-2.03,1.91c-0.52,0.74-0.88,1.55-1.08,2.42c-0.2,0.87-0.24,1.73-0.12,2.56 c0.13,0.88,0.43,1.73,0.91,2.53c0.48,0.81,1.08,1.5,1.8,2.08c0.72,0.58,1.55,1.02,2.47,1.3c0.92,0.28,1.91,0.35,2.94,0.19 c0.59-0.09,1.18-0.25,1.77-0.48c0.59-0.23,1.14-0.53,1.65-0.88c0.51-0.35,0.95-0.76,1.31-1.23c0.29-0.36,0.5-0.74,0.66-1.15 L301.06,35.22z" class="st3"/><path d="M301.06,35.22c-0.08,0.23-0.18,0.44-0.3,0.62c-0.19,0.27-0.41,0.51-0.67,0.7c-0.26,0.19-0.53,0.34-0.83,0.46 c-0.29,0.12-0.58,0.19-0.86,0.24c-0.55,0.08-1.06,0.04-1.55-0.12c-0.48-0.16-0.91-0.41-1.28-0.76c-0.37-0.34-0.69-0.76-0.94-1.24 c-0.25-0.48-0.42-0.99-0.5-1.54c-0.07-0.51-0.07-1.02,0-1.53c0.07-0.52,0.23-0.99,0.47-1.42c0.24-0.43,0.56-0.81,0.98-1.12 c0.41-0.31,0.93-0.52,1.55-0.61c0.27-0.04,0.56-0.05,0.87-0.04c0.31,0.01,0.62,0.08,0.92,0.18c0.3,0.11,0.59,0.26,0.87,0.47 c0.08,0.06,0.15,0.14,0.22,0.21l2.3-2.16c-0.53-0.5-1.16-0.9-1.91-1.19c-1.07-0.41-2.27-0.52-3.6-0.32 c-1.14,0.17-2.12,0.52-2.95,1.05c-0.83,0.53-1.51,1.17-2.03,1.91c-0.52,0.74-0.88,1.55-1.08,2.42c-0.2,0.87-0.24,1.73-0.12,2.56 c0.13,0.88,0.43,1.73,0.91,2.53c0.48,0.81,1.08,1.5,1.8,2.08c0.72,0.58,1.55,1.02,2.47,1.3c0.92,0.28,1.91,0.35,2.94,0.19 c0.59-0.09,1.18-0.25,1.77-0.48c0.59-0.23,1.14-0.53,1.65-0.88c0.51-0.35,0.95-0.76,1.31-1.23c0.29-0.36,0.5-0.74,0.66-1.15 L301.06,35.22z" class="st0"/></g><g><path d="M312.15,38.3c-1.09,0.16-2.11,0.1-3.05-0.17c-0.95-0.28-1.79-0.7-2.53-1.27c-0.74-0.57-1.34-1.26-1.82-2.06 c-0.48-0.8-0.78-1.66-0.92-2.57c-0.14-0.92-0.08-1.84,0.15-2.75c0.24-0.91,0.64-1.74,1.19-2.49c0.56-0.75,1.25-1.38,2.09-1.9 c0.84-0.52,1.79-0.86,2.85-1.02c1.09-0.16,2.11-0.1,3.05,0.18c0.95,0.28,1.79,0.71,2.53,1.28s1.34,1.27,1.81,2.08 c0.47,0.81,0.77,1.65,0.9,2.53c0.14,0.92,0.09,1.84-0.15,2.75c-0.24,0.91-0.63,1.74-1.18,2.49c-0.55,0.75-1.24,1.38-2.08,1.91 C314.16,37.8,313.21,38.14,312.15,38.3z M307.43,31.72c0.08,0.54,0.24,1.05,0.48,1.54c0.24,0.48,0.54,0.9,0.91,1.25 c0.37,0.35,0.8,0.61,1.3,0.78c0.5,0.17,1.05,0.21,1.65,0.12c0.62-0.09,1.13-0.3,1.56-0.61c0.42-0.32,0.76-0.7,1-1.15 c0.25-0.45,0.41-0.94,0.49-1.47c0.08-0.53,0.07-1.06,0-1.58c-0.08-0.54-0.24-1.05-0.48-1.54c-0.24-0.48-0.55-0.9-0.92-1.24 c-0.37-0.34-0.8-0.59-1.3-0.76c-0.49-0.16-1.03-0.2-1.62-0.11c-0.62,0.09-1.13,0.29-1.56,0.6c-0.42,0.31-0.76,0.69-1.01,1.13 c-0.25,0.44-0.42,0.93-0.5,1.46C307.35,30.67,307.35,31.2,307.43,31.72z" class="st2"/><path d="M312.15,38.3c-1.09,0.16-2.11,0.1-3.05-0.17c-0.95-0.28-1.79-0.7-2.53-1.27c-0.74-0.57-1.34-1.26-1.82-2.06 c-0.48-0.8-0.78-1.66-0.92-2.57c-0.14-0.92-0.08-1.84,0.15-2.75c0.24-0.91,0.64-1.74,1.19-2.49c0.56-0.75,1.25-1.38,2.09-1.9 c0.84-0.52,1.79-0.86,2.85-1.02c1.09-0.16,2.11-0.1,3.05,0.18c0.95,0.28,1.79,0.71,2.53,1.28s1.34,1.27,1.81,2.08 c0.47,0.81,0.77,1.65,0.9,2.53c0.14,0.92,0.09,1.84-0.15,2.75c-0.24,0.91-0.63,1.74-1.18,2.49c-0.55,0.75-1.24,1.38-2.08,1.91 C314.16,37.8,313.21,38.14,312.15,38.3z M307.43,31.72c0.08,0.54,0.24,1.05,0.48,1.54c0.24,0.48,0.54,0.9,0.91,1.25 c0.37,0.35,0.8,0.61,1.3,0.78c0.5,0.17,1.05,0.21,1.65,0.12c0.62-0.09,1.13-0.3,1.56-0.61c0.42-0.32,0.76-0.7,1-1.15 c0.25-0.45,0.41-0.94,0.49-1.47c0.08-0.53,0.07-1.06,0-1.58c-0.08-0.54-0.24-1.05-0.48-1.54c-0.24-0.48-0.55-0.9-0.92-1.24 c-0.37-0.34-0.8-0.59-1.3-0.76c-0.49-0.16-1.03-0.2-1.62-0.11c-0.62,0.09-1.13,0.29-1.56,0.6c-0.42,0.31-0.76,0.69-1.01,1.13 c-0.25,0.44-0.42,0.93-0.5,1.46C307.35,30.67,307.35,31.2,307.43,31.72z" class="st3"/><path d="M312.15,38.3c-1.09,0.16-2.11,0.1-3.05-0.17c-0.95-0.28-1.79-0.7-2.53-1.27c-0.74-0.57-1.34-1.26-1.82-2.06 c-0.48-0.8-0.78-1.66-0.92-2.57c-0.14-0.92-0.08-1.84,0.15-2.75c0.24-0.91,0.64-1.74,1.19-2.49c0.56-0.75,1.25-1.38,2.09-1.9 c0.84-0.52,1.79-0.86,2.85-1.02c1.09-0.16,2.11-0.1,3.05,0.18c0.95,0.28,1.79,0.71,2.53,1.28s1.34,1.27,1.81,2.08 c0.47,0.81,0.77,1.65,0.9,2.53c0.14,0.92,0.09,1.84-0.15,2.75c-0.24,0.91-0.63,1.74-1.18,2.49c-0.55,0.75-1.24,1.38-2.08,1.91 C314.16,37.8,313.21,38.14,312.15,38.3z M307.43,31.72c0.08,0.54,0.24,1.05,0.48,1.54c0.24,0.48,0.54,0.9,0.91,1.25 c0.37,0.35,0.8,0.61,1.3,0.78c0.5,0.17,1.05,0.21,1.65,0.12c0.62-0.09,1.13-0.3,1.56-0.61c0.42-0.32,0.76-0.7,1-1.15 c0.25-0.45,0.41-0.94,0.49-1.47c0.08-0.53,0.07-1.06,0-1.58c-0.08-0.54-0.24-1.05-0.48-1.54c-0.24-0.48-0.55-0.9-0.92-1.24 c-0.37-0.34-0.8-0.59-1.3-0.76c-0.49-0.16-1.03-0.2-1.62-0.11c-0.62,0.09-1.13,0.29-1.56,0.6c-0.42,0.31-0.76,0.69-1.01,1.13 c-0.25,0.44-0.42,0.93-0.5,1.46C307.35,30.67,307.35,31.2,307.43,31.72z" class="st0"/></g><g><path d="M4.02 39.84v-8.97H.84v-1.2h7.65v1.2H5.29v8.97H4.02zM10.08 39.84v-7.37h1.07v1.12c.27-.52.52-.87.75-1.03.23-.17.48-.25.76-.25.4 0 .81.13 1.22.4l-.41 1.16c-.29-.18-.58-.27-.87-.27-.26 0-.49.08-.7.25s-.35.39-.44.68c-.13.44-.2.93-.2 1.46v3.86H10.08zM20.12 39.84v-1.08c-.54.83-1.28 1.25-2.22 1.25-.41 0-.8-.08-1.15-.25-.36-.17-.62-.38-.8-.63-.17-.25-.3-.56-.37-.93-.05-.25-.07-.63-.07-1.17v-4.57h1.18v4.09c0 .65.02 1.09.07 1.32.07.33.23.59.47.77.24.19.54.28.89.28.36 0 .69-.1 1-.29.31-.19.53-.45.66-.78.13-.33.19-.81.19-1.44v-3.95h1.18v7.37H20.12zM23.52 37.64l1.17-.19c.07.5.25.87.55 1.14s.72.4 1.26.4c.54 0 .95-.12 1.21-.35.26-.23.4-.51.4-.82 0-.28-.12-.5-.35-.67-.16-.11-.57-.25-1.21-.42-.87-.23-1.47-.43-1.81-.6-.34-.17-.59-.4-.76-.7-.17-.3-.26-.63-.26-.99 0-.33.07-.63.21-.91.14-.28.34-.51.58-.7.18-.14.44-.26.75-.36.32-.1.66-.15 1.02-.15.55 0 1.03.08 1.44.25.41.17.72.39.92.68.2.28.33.67.41 1.14l-1.16.17c-.05-.38-.21-.67-.46-.89-.25-.21-.61-.32-1.07-.32-.54 0-.93.09-1.17.28-.23.19-.35.41-.35.67 0 .16.05.31.15.44.1.13.25.25.45.33.12.05.47.15 1.05.32.84.24 1.42.43 1.75.58.33.15.59.37.78.66.19.29.28.64.28 1.07 0 .42-.12.81-.35 1.18-.23.37-.56.65-1 .85s-.93.3-1.47.3c-.91 0-1.6-.2-2.08-.6C23.96 39.01 23.65 38.42 23.52 37.64zM34.28 38.72l.17 1.1c-.33.07-.63.11-.9.11-.43 0-.76-.07-1-.21s-.4-.33-.5-.57c-.1-.23-.15-.72-.15-1.47v-4.24h-.87v-.97h.87v-1.82l1.18-.75v2.57h1.19v.97h-1.19v4.31c0 .36.02.58.06.69.04.1.11.18.2.24.09.06.23.09.4.09C33.89 38.77 34.06 38.76 34.28 38.72zM41.17 37.47l1.22.16c-.19.75-.55 1.34-1.07 1.75-.52.42-1.19.63-2 .63-1.02 0-1.83-.33-2.43-1-.6-.66-.9-1.59-.9-2.79 0-1.24.3-2.2.91-2.89.61-.68 1.39-1.03 2.36-1.03.93 0 1.7.33 2.29 1.01.59.67.89 1.61.89 2.83 0 .07 0 .19-.01.33h-5.21c.04.81.26 1.43.65 1.86.39.43.88.65 1.46.65.43 0 .81-.12 1.11-.36C40.75 38.38 40.99 38 41.17 37.47zM37.29 35.45h3.9c-.05-.62-.2-1.08-.45-1.39-.38-.48-.87-.72-1.47-.72-.54 0-1 .19-1.37.58S37.33 34.81 37.29 35.45zM49.38 39.84v-.93c-.44.73-1.09 1.1-1.95 1.1-.56 0-1.07-.16-1.54-.49-.47-.32-.83-.78-1.09-1.36-.26-.58-.39-1.25-.39-2 0-.74.12-1.4.35-2 .23-.6.58-1.06 1.05-1.38.47-.32.98-.48 1.56-.48.42 0 .8.09 1.13.28s.6.43.8.73v-3.65h1.18v10.17H49.38zM45.63 36.17c0 .94.19 1.65.57 2.12.38.47.82.7 1.34.7.52 0 .96-.22 1.32-.67.36-.45.54-1.13.54-2.04 0-1.01-.18-1.75-.55-2.22s-.82-.71-1.36-.71c-.53 0-.97.23-1.32.68C45.81 34.47 45.63 35.19 45.63 36.17zM57.71 36.57l1.2-.11c.06.51.19.93.4 1.25.21.33.53.59.97.79s.93.3 1.48.3c.49 0 .92-.08 1.29-.23.37-.15.65-.36.83-.63s.27-.56.27-.87c0-.32-.09-.6-.26-.84-.18-.24-.47-.44-.87-.6-.26-.11-.83-.27-1.72-.5-.89-.22-1.51-.44-1.86-.63-.46-.25-.8-.57-1.03-.95-.23-.38-.34-.8-.34-1.27 0-.51.14-.99.41-1.44s.68-.79 1.21-1.02c.53-.23 1.12-.35 1.77-.35.72 0 1.35.12 1.89.36.55.24.97.6 1.26 1.07s.45 1.01.47 1.6l-1.22.1c-.07-.64-.29-1.13-.67-1.46-.38-.33-.94-.49-1.68-.49-.77 0-1.33.15-1.69.45-.35.3-.53.66-.53 1.08 0 .37.13.67.38.9.25.24.89.48 1.92.72 1.04.25 1.75.46 2.14.65.56.27.98.62 1.24 1.04.27.42.4.9.4 1.45 0 .54-.15 1.05-.44 1.53s-.72.85-1.27 1.12c-.55.27-1.17.4-1.86.4-.87 0-1.6-.13-2.19-.4-.59-.27-1.05-.67-1.39-1.21C57.91 37.86 57.73 37.25 57.71 36.57zM67.95 31.11v-1.44h1.18v1.44H67.95zM67.95 39.84v-7.37h1.18v7.37H67.95zM71.89 39.84v-7.37h1.07v1.05c.51-.81 1.25-1.21 2.22-1.21.42 0 .81.08 1.16.24.35.16.62.37.79.63.18.26.3.57.37.92.04.23.07.64.07 1.21v4.53h-1.18v-4.48c0-.51-.05-.89-.14-1.14-.09-.25-.26-.45-.49-.6-.23-.15-.51-.23-.83-.23-.5 0-.94.17-1.31.51-.37.34-.55.98-.55 1.92v4.02H71.89zM84.9 37.14l1.17.16c-.13.85-.45 1.51-.98 1.99-.52.48-1.17.72-1.93.72-.96 0-1.73-.33-2.31-.99-.58-.66-.87-1.6-.87-2.83 0-.8.13-1.49.38-2.09s.63-1.04 1.14-1.34c.51-.3 1.07-.45 1.67-.45.76 0 1.38.2 1.86.61.48.41.79.98.93 1.72l-1.15.19c-.11-.49-.3-.87-.58-1.12-.28-.25-.62-.38-1.01-.38-.6 0-1.08.23-1.45.68-.37.45-.56 1.16-.56 2.14 0 .99.18 1.71.54 2.16.36.45.83.67 1.41.67.46 0 .85-.15 1.17-.45C84.62 38.23 84.82 37.77 84.9 37.14zM92.82 37.47l1.22.16c-.19.75-.55 1.34-1.07 1.75-.52.42-1.19.63-2 .63-1.02 0-1.83-.33-2.43-1-.6-.66-.9-1.59-.9-2.79 0-1.24.3-2.2.91-2.89.61-.68 1.39-1.03 2.36-1.03.93 0 1.7.33 2.29 1.01.59.67.89 1.61.89 2.83 0 .07 0 .19-.01.33h-5.21c.04.81.26 1.43.65 1.86.39.43.88.65 1.46.65.43 0 .81-.12 1.11-.36C92.4 38.38 92.64 38 92.82 37.47zM88.93 35.45h3.9c-.05-.62-.2-1.08-.45-1.39-.38-.48-.87-.72-1.47-.72-.54 0-1 .19-1.37.58S88.97 34.81 88.93 35.45zM105.32 39.84h-1.18v-7.96c-.29.29-.66.57-1.12.86s-.88.5-1.25.65v-1.21c.66-.33 1.24-.73 1.74-1.19.5-.47.85-.92 1.05-1.36h.76V39.84zM109.49 37.49l1.14-.11c.1.56.28.97.55 1.23.27.25.62.38 1.05.38.36 0 .68-.09.96-.26.27-.18.5-.41.67-.7.18-.29.32-.69.44-1.19.12-.5.18-1.01.18-1.53 0-.06 0-.14-.01-.25-.24.4-.56.72-.97.97s-.85.37-1.33.37c-.8 0-1.47-.31-2.03-.92-.55-.61-.83-1.42-.83-2.41 0-1.03.29-1.86.87-2.49.58-.63 1.3-.94 2.17-.94.63 0 1.2.18 1.72.53.52.36.91.86 1.18 1.52.27.66.4 1.61.4 2.86 0 1.3-.13 2.33-.4 3.11-.27.77-.67 1.36-1.19 1.76-.53.4-1.15.6-1.86.6-.75 0-1.37-.22-1.85-.66C109.87 38.91 109.59 38.29 109.49 37.49zM114.34 33c0-.72-.18-1.29-.54-1.71-.36-.42-.8-.63-1.31-.63-.53 0-.98.23-1.38.68s-.59 1.04-.59 1.76c0 .65.19 1.17.56 1.58.37.4.83.61 1.37.61.55 0 1-.2 1.35-.61C114.16 34.28 114.34 33.72 114.34 33zM117.94 37.49l1.14-.11c.1.56.28.97.55 1.23.27.25.62.38 1.05.38.36 0 .68-.09.96-.26.27-.18.5-.41.67-.7.18-.29.32-.69.44-1.19.12-.5.18-1.01.18-1.53 0-.06 0-.14-.01-.25-.24.4-.56.72-.97.97s-.85.37-1.33.37c-.8 0-1.47-.31-2.03-.92-.55-.61-.83-1.42-.83-2.41 0-1.03.29-1.86.87-2.49.58-.63 1.3-.94 2.17-.94.63 0 1.2.18 1.72.53.52.36.91.86 1.18 1.52.27.66.4 1.61.4 2.86 0 1.3-.13 2.33-.4 3.11-.27.77-.67 1.36-1.19 1.76-.53.4-1.15.6-1.86.6-.75 0-1.37-.22-1.85-.66C118.33 38.91 118.04 38.29 117.94 37.49zM122.79 33c0-.72-.18-1.29-.54-1.71-.36-.42-.8-.63-1.31-.63-.53 0-.98.23-1.38.68s-.59 1.04-.59 1.76c0 .65.19 1.17.56 1.58.37.4.83.61 1.37.61.55 0 1-.2 1.35-.61C122.62 34.28 122.79 33.72 122.79 33zM126.39 37.49l1.14-.11c.1.56.28.97.55 1.23.27.25.62.38 1.05.38.36 0 .68-.09.96-.26.27-.18.5-.41.67-.7.18-.29.32-.69.44-1.19.12-.5.18-1.01.18-1.53 0-.06 0-.14-.01-.25-.24.4-.56.72-.97.97s-.85.37-1.33.37c-.8 0-1.47-.31-2.03-.92-.55-.61-.83-1.42-.83-2.41 0-1.03.29-1.86.87-2.49.58-.63 1.3-.94 2.17-.94.63 0 1.2.18 1.72.53.52.36.91.86 1.18 1.52.27.66.4 1.61.4 2.86 0 1.3-.13 2.33-.4 3.11-.27.77-.67 1.36-1.19 1.76-.53.4-1.15.6-1.86.6-.75 0-1.37-.22-1.85-.66C126.78 38.91 126.49 38.29 126.39 37.49zM131.24 33c0-.72-.18-1.29-.54-1.71-.36-.42-.8-.63-1.31-.63-.53 0-.98.23-1.38.68s-.59 1.04-.59 1.76c0 .65.19 1.17.56 1.58.37.4.83.61 1.37.61.55 0 1-.2 1.35-.61C131.07 34.28 131.24 33.72 131.24 33z" class="st4"/></g><path d="M206.52 12.42v2.46c-.01 0 0 0 0 0v-2.44c-.04 0 .04-.01 0-.01C206.56 12.43 206.47 12.42 206.52 12.42zM207.54 16.2c-.01 0-.02-.01-.03-.02h.02C207.53 16.19 207.53 16.19 207.54 16.2z" class="st4"/><path d="M214.92,14.76c0.69,0.7,0.26,1.83-0.7,2c-1.81,0.31-2.42,1.74-2.55,2.16c-0.03,0.08-0.04,0.12-0.04,0.12	c-0.74,2.08-2.98,3.6-5.62,3.6c-3.25,0-5.89-2.29-5.89-5.12c0-1.55,0.79-2.93,2.04-3.86c-1.09-0.75-1.76-1.76-1.76-2.87	c0-2.26,2.77-4.09,6.2-4.09c1.63,0,3.09,0.44,4.19,1.12l-1.85,2.24l-0.08,0.07c-0.39-0.57-1.25-0.97-2.26-0.97	c-1.37,0-2.48,0.73-2.48,1.63c0,0.8,0.85,1.45,1.98,1.61h0.08c0.13,0.02,0.21,0.03,0.35,0.03c0.01,0-0.01,0,0,0	c0.04,0-0.04,0.01,0,0.01v3.2c-0.2-0.03-0.28,0-0.52,0c-1.2,0-2.17,0.84-2.17,1.88c0,1.04,0.97,1.89,2.17,1.89	c1.19,0,2.16-0.85,2.16-1.89c0-0.33-0.1-0.64-0.27-0.91l-0.03-0.03c-0.08-0.13-0.18-0.25-0.3-0.35c-0.01-0.01-0.01-0.02-0.02-0.03	c-0.01-0.01-0.01-0.01-0.01-0.02c-0.37-0.5-0.1-0.73-0.1-0.73h4.76c0.6,0,1.08-0.41,1.28-0.97c0.27-0.75,0.8-0.91,0.8-0.91	c-0.17,0.61,0.57,1.11,0.57,1.11L214.92,14.76z" class="st4"/><g><path d="M332.53 21.6L333.43 35.09 329.72 35.34 329.26 28.85 326.88 34.15 323.49 29.25 323.95 35.74 320.24 35.99 319.34 22.5 323.04 22.25 326.47 27.89 328.82 21.85z" class="st2"/><path d="M332.53 21.6L333.43 35.09 329.72 35.34 329.26 28.85 326.88 34.15 323.49 29.25 323.95 35.74 320.24 35.99 319.34 22.5 323.04 22.25 326.47 27.89 328.82 21.85z" class="st2"/><path d="M332.53 21.6L333.43 35.09 329.72 35.34 329.26 28.85 326.88 34.15 323.49 29.25 323.95 35.74 320.24 35.99 319.34 22.5 323.04 22.25 326.47 27.89 328.82 21.85z" class="st3"/><path d="M332.53 21.6L333.43 35.09 329.72 35.34 329.26 28.85 326.88 34.15 323.49 29.25 323.95 35.74 320.24 35.99 319.34 22.5 323.04 22.25 326.47 27.89 328.82 21.85z" class="st3"/><g><path d="M332.53 21.6L333.43 35.09 329.72 35.34 329.26 28.85 326.88 34.15 323.49 29.25 323.95 35.74 320.24 35.99 319.34 22.5 323.04 22.25 326.47 27.89 328.82 21.85z" class="st0"/><path d="M332.53 21.6L333.43 35.09 329.72 35.34 329.26 28.85 326.88 34.15 323.49 29.25 323.95 35.74 320.24 35.99 319.34 22.5 323.04 22.25 326.47 27.89 328.82 21.85z" class="st0"/></g></g><circle cx="288.86" cy="39.85" r="1.92" class="st0"/></svg>