<svg xmlns="http://www.w3.org/2000/svg" viewBox="0 0 399.5 123.2">
  <path d="M313.3 98.2H305c-1 0-1.7.5-2 1.4-.9 2.6-1.9 5.1-2.8 7.7-.3 1-.1 1.4 1.1 1.4H309.7c1.1 0 1.8-.5 2.2-1.6.9-2.4 1.8-4.9 2.6-7.3.4-1.2.2-1.6-1.2-1.6zm0 0H305c-1 0-1.7.5-2 1.4-.9 2.6-1.9 5.1-2.8 7.7-.3 1-.1 1.4 1.1 1.4H309.7c1.1 0 1.8-.5 2.2-1.6.9-2.4 1.8-4.9 2.6-7.3.4-1.2.2-1.6-1.2-1.6zM187.5 98h-9.9l-4.6 10.4h10.2c.7 0 2 .1 2.8-1.3.8-1.5 2.5-5.3 3.1-6.8.5-1.4.1-2.3-1.6-2.3zm125.8.2H305c-1 0-1.7.5-2 1.4-.9 2.6-1.9 5.1-2.8 7.7-.3 1-.1 1.4 1.1 1.4H309.7c1.1 0 1.8-.5 2.2-1.6.9-2.4 1.8-4.9 2.6-7.3.4-1.2.2-1.6-1.2-1.6zm0 0H305c-1 0-1.7.5-2 1.4-.9 2.6-1.9 5.1-2.8 7.7-.3 1-.1 1.4 1.1 1.4H309.7c1.1 0 1.8-.5 2.2-1.6.9-2.4 1.8-4.9 2.6-7.3.4-1.2.2-1.6-1.2-1.6zM187.5 98h-9.9l-4.6 10.4h10.2c.7 0 2 .1 2.8-1.3.8-1.5 2.5-5.3 3.1-6.8.5-1.4.1-2.3-1.6-2.3zm189.8-11.2H48.9c-9.5 0-19 .1-28.5 0-3.7-.1-6.7 1.1-8.1 4.5C9 99.1 6 107 2.8 114.9c-1.2 3 .3 4.5 3 5 1.4.3 3 .1 4.5.1h354.5c7.5 0 9.1-1.1 11.8-8.1 2.2-5.6 4.4-11.1 6.5-16.7 2.8-7.3 2-8.4-5.8-8.4zm-298.2 25H67.7l-2.1-16.7H74v11.2l11.2-11.2h7.3l-13.4 16.7zm49.4 0h-6.7l6.7-16.7h6.9l-6.9 16.7zm68.2-13.7c-.6 1.7-3.9 9.1-4.8 10.7-.9 1.6-2.3 2.8-4.3 2.8h-22.4l7.2-16.7H194c2.6 0 3.3 1.5 2.7 3.2zm62.5.2h-18.3l-1.4 3.5h8l-.6 3h-8.5l-1.4 3.9h18.5l-1 3.2h-25.7l6.3-16.7h25.7l-1.6 3.1zm61.6.6c-1 2.9-2 5.7-3 8.6-1.2 3.4-2.4 4.3-6 4.4-2.5.1-5 0-7.5 0 0 .1-5.9 0-8.9-.2-1.9-.2-2.5-1.1-1.9-3 1.2-3.5 2.5-7 3.7-10.4.9-2.4 2.9-3 5.1-3.1 5.3-.1 10.5 0 15.8 0h.3c2.8.3 3.3 1.1 2.4 3.7zm-7.5-.7H305c-1 0-1.7.5-2 1.4-.9 2.6-1.9 5.1-2.8 7.7-.3 1-.1 1.4 1.1 1.4H309.7c1.1 0 1.8-.5 2.2-1.6.9-2.4 1.8-4.9 2.6-7.3.4-1.2.2-1.6-1.2-1.6zM187.5 98h-9.9l-4.6 10.4h10.2c.7 0 2 .1 2.8-1.3.8-1.5 2.5-5.3 3.1-6.8.5-1.4.1-2.3-1.6-2.3zm0 0h-9.9l-4.6 10.4h10.2c.7 0 2 .1 2.8-1.3.8-1.5 2.5-5.3 3.1-6.8.5-1.4.1-2.3-1.6-2.3zm125.8.2H305c-1 0-1.7.5-2 1.4-.9 2.6-1.9 5.1-2.8 7.7-.3 1-.1 1.4 1.1 1.4H309.7c1.1 0 1.8-.5 2.2-1.6.9-2.4 1.8-4.9 2.6-7.3.4-1.2.2-1.6-1.2-1.6zm0 0H305c-1 0-1.7.5-2 1.4-.9 2.6-1.9 5.1-2.8 7.7-.3 1-.1 1.4 1.1 1.4H309.7c1.1 0 1.8-.5 2.2-1.6.9-2.4 1.8-4.9 2.6-7.3.4-1.2.2-1.6-1.2-1.6zM187.5 98h-9.9l-4.6 10.4h10.2c.7 0 2 .1 2.8-1.3.8-1.5 2.5-5.3 3.1-6.8.5-1.4.1-2.3-1.6-2.3zm125.8.2H305c-1 0-1.7.5-2 1.4-.9 2.6-1.9 5.1-2.8 7.7-.3 1-.1 1.4 1.1 1.4H309.7c1.1 0 1.8-.5 2.2-1.6.9-2.4 1.8-4.9 2.6-7.3.4-1.2.2-1.6-1.2-1.6zm0 0H305c-1 0-1.7.5-2 1.4-.9 2.6-1.9 5.1-2.8 7.7-.3 1-.1 1.4 1.1 1.4H309.7c1.1 0 1.8-.5 2.2-1.6.9-2.4 1.8-4.9 2.6-7.3.4-1.2.2-1.6-1.2-1.6zm70.6-91.1c-.4-.1-.9-.1-1.4-.1-24 0-48-.2-72 .1-10.1.1-19.2 3.1-23.1 14-5.7 15.8-11.4 31.5-16.8 47.4-2.8 8.3-.3 12.8 8.4 13.5.6 0 1.3.1 1.9.1.3 0 .6 0 1 .1.3 0 .6 0 1 .1.3 0 .6 0 1 .1 13.2.6 35.6.9 35.6.7 11.3 0 22.7.2 34 0 16.4-.4 21.6-4.4 27.1-19.8 4.6-13 9.3-26 13.9-39 4-11.9 1.7-15.6-10.6-17.2zm-18.7 21.3c-3.9 11.1-8 22.1-11.9 33.3-1.7 4.8-4.8 7.3-10 7.3-6.2-.1-12.3 0-18.5 0-6.5 0-13 .2-19.5 0-5.1-.2-6.5-2-4.9-6.6 4.1-11.7 8.4-23.4 12.7-35.1 1.5-4.2 4.5-6.4 9.1-6.3 12.6 0 25.3-.2 37.9 0 6.2 0 7.1 1.7 5.1 7.4zM273.5 7.1c-.6-.1-1.3-.1-2-.1-23.5 0-47-.4-70.4.1-15.2.3-22.3 6.9-25.2 21.8 7.8 0 15.3-.1 22.8.1 2.7 0 4.3-.7 6.1-2.9 1.9-2.2 5.1-4.5 7.9-4.6 13-.5 25.9-.5 38.9-.3 1.2 0 3.3 2.1 3.3 3.3.5 5.9-5 12-10.9 12.7-2.5.3-5 .4-7.5.4-14.3.1-28.7-.1-43 .3-15.5.4-24.2 7.1-29.3 21.6-2.8 7.7-5.4 15.5-8.3 23.7 35.1 0 69.4 0 103.7-.1 1.1 0 2.7-.9 3.1-1.8 1.6-3.9 2.9-7.9 4.4-12.2h-78c3.1-15.7 5.2-17.4 20.1-17.5 14.5-.1 29 .1 43.4-.8 14-.8 25.7-5.8 28.8-21.7.4-1.9 1.3-3.8 2-5.6 4-11 1.7-14.8-9.9-16.4zm-109.9 0c-.5-.1-1-.1-1.5-.1-23.5 0-47-.4-70.5.2C75.9 7.6 70.2 13 66.2 29c7.5 0 14.7-.1 21.8 0 3.3.1 5.8-.1 7.7-3.8 1-2 4.2-3.8 6.5-3.9 13.1-.4 26.3-.4 39.4-.2 1.3 0 3.5 1.8 3.7 3 .9 5.7-4.5 12.5-10.4 12.8-8.8.5-17.6.4-26.5.7-1.5.1-3.8.5-4.2 1.4-1.8 3.8-3 7.9-4.7 12.6h6.3c7.7 0 15.3-.2 23 .2 1.8.1 4.8 1.8 5.1 3.2 1.5 6.1-4.7 13.6-11.1 13.7-11.5.2-23 .3-34.5.1-7.2-.1-7.4-.6-7.3-8H61.7c-8.1 0-8.1 0-10.3 7.8-2.3 8.2 0 11.9 8.5 13.3 3.1.5 6.3.9 9.4.9 19.8.1 39.7.3 59.5 0 21.2-.3 25.5-3.8 32.5-23.8 2.1-6.1 3.4-11.3-4.6-14.3 11.1-5.1 11.8-5.9 15.6-16.9l1.5-4.2c4-11.5 1.9-14.9-10.2-16.5zM22.3 6.7c-1 0-2.6 1-3 1.9-1.6 3.8-2.8 7.7-4.4 12.1h21.7C29.2 41.6 22 61.9 14.5 83.3c8.3 0 15.8-.2 23.3.1 3.5.1 4.9-1.1 6-4.3 8-22.7 16.2-45.3 24.4-67.9.5-1.3.7-2.7 1.1-4.6-16.1 0-31.5-.1-47 .1z" fill="#9FA6B2"/>
</svg>
