<?xml version="1.0" encoding="utf-8"?>
<!-- Generator: Adobe Illustrator 24.0.2, SVG Export Plug-In . SVG Version: 6.00 Build 0)  -->
<svg version="1.1"
	 id="svg2985" xmlns:cc="http://creativecommons.org/ns#" xmlns:dc="http://purl.org/dc/elements/1.1/" xmlns:inkscape="http://www.inkscape.org/namespaces/inkscape" xmlns:rdf="http://www.w3.org/1999/02/22-rdf-syntax-ns#" xmlns:sodipodi="http://sodipodi.sourceforge.net/DTD/sodipodi-0.dtd" xmlns:svg="http://www.w3.org/2000/svg"
	 xmlns="http://www.w3.org/2000/svg" xmlns:xlink="http://www.w3.org/1999/xlink" x="0px" y="0px" viewBox="0 0 500 110"
	 style="enable-background:new 0 0 500 110;" xml:space="preserve">
<style type="text/css">
	.st0{fill:#9FA6B2;}
</style>
<sodipodi:namedview  bordercolor="#666666" borderopacity="1" fit-margin-bottom="0.5" fit-margin-left="0.5" fit-margin-right="0.5" fit-margin-top="0.5" gridtolerance="10" guidetolerance="10" id="namedview2987" inkscape:current-layer="g2993" inkscape:cx="198.48263" inkscape:cy="1.7893114" inkscape:pageopacity="0" inkscape:pageshadow="2" inkscape:window-height="706" inkscape:window-maximized="1" inkscape:window-width="1366" inkscape:window-x="-8" inkscape:window-y="-8" inkscape:zoom="1.4718069" objecttolerance="10" pagecolor="#ffffff" showgrid="false">
	</sodipodi:namedview>
<g id="g3019" transform="matrix(2.2838801,0,0,2.2838801,714.17289,128.79487)">
	<g>
		<path id="path3021_8_" inkscape:connector-curvature="0" class="st0" d="M-130.9-24.4l7.9-13.7l1-16.5h-1.8l-21.9,37.8l0.9,1.6
			L-130.9-24.4z M-129-21.2l-14.9,7.4l0.9,1.6l43.7,0.1l0.9-1.5l-14.9-7.6H-129z M-118.4-54.6h-1.9l0.9,16.5l7.9,13.7l13.9,9.3
			l1-1.7C-96.6-16.7-118.4-54.6-118.4-54.6z"/>
	</g>
</g>
<g id="g3025">
	<g>
		<g id="g3031_8_" transform="translate(599.9731,123.7541)">
			<path id="path3033_8_" inkscape:connector-curvature="0" class="st0" d="M-297.7-59.1v12.9c0,15.1-10.4,23.5-24.8,23.9h-3.1
				c-14.4-0.6-24.6-9-24.6-24v-12.9c0.1-15.1,10.4-23.5,24.8-23.9c0.7,0,2.1,0,2.9,0C-308-82.6-297.6-74.1-297.7-59.1 M-324.9-70.6
				c-5.7,0.3-11.1,3.2-11.2,11.4v12.9c0,7.9,5.4,11.1,11.1,11.4c0.3,0,1.7,0,2,0c5.6-0.3,11.1-3.3,11.1-11.4v-12.9
				c0-8.1-5.5-11.1-11.2-11.5C-323.7-70.6-324.3-70.6-324.9-70.6"/>
		</g>
		<g id="g3043_8_" transform="translate(603.8603,123.4729)">
			<path id="path3037_8_" inkscape:connector-curvature="0" class="st0" d="M-279.9-57.3c0,0,21.2-24.1,22.4-25.4h17.7l-25.7,29.1
				l27,29.9h-17.9l-23.5-26.1v26.1h-14.2l0.1-73.4h14.2L-279.9-57.3z"/>
		</g>
		<g id="g3039_8_" transform="translate(567.8198,121.9379)">
			<path id="path3041_8_" inkscape:connector-curvature="0" class="st0" d="M-445.1-47.2v-10.4c0-15.1-10.5-23.5-24.9-24h-2.7
				c-14.5,0.5-24.9,8.9-24.9,23.9v12.8c0,14.4,10.7,23.3,24.5,24c1.5,0,2.2,0,3.2,0c17.3,0,23.8-8.7,24.6-18.8h-13
				c-0.3,1.9-1,6.8-11.9,6.8c-1.9,0-4.6-0.5-6.5-1.1c-8.1-2.7-6.8-12.7-6.8-13.2L-445.1-47.2z M-483.5-58.6c0-7.8,5.2-10.8,11.3-11
				c0.7,0,1.3,0,1.9,0c6.2,0.3,11.4,3.5,11.4,11.1v1h-24.5C-483.5-57.6-483.5-58.6-483.5-58.6z"/>
		</g>
		<g id="g3048_8_" transform="translate(578.4982,121.9222)">
			<path id="path3045_8_" inkscape:connector-curvature="0" class="st0" d="M-396.1-47.1v-10.4c0-15.1-10.5-23.5-25-24h-2.7
				c-14.6,0.4-24.9,8.9-24.9,23.9v12.8c0,14.3,10.7,23.3,24.5,24c1.5,0,2.2,0,3.2,0c17.3,0,23.8-8.8,24.6-18.8l-12.9-0.1
				c-0.4,1.9-1,6.8-12,6.8c-1.9,0-4.5-0.5-6.4-1.1c-8.2-2.7-6.8-12.7-6.8-13.2L-396.1-47.1z M-434.6-58.5c0-7.8,5.2-10.8,11.3-11
				c0.6,0,1.3,0,1.9,0c6.2,0.2,11.4,3.5,11.3,11v1h-24.5C-434.6-57.5-434.6-58.5-434.6-58.5z"/>
		</g>
		<g id="g3047_8_" transform="translate(584.8406,128.0434)">
			<path id="path3049_8_" inkscape:connector-curvature="0" class="st0" d="M-367.1-87.4c-6.6,0-11.1,1.8-13.6,3.9v-18.4h-14.1
				l-0.1,73.4h2.5c0,0,6.3-3.5,6.6-3.6c0.9,1,7.1,5.5,15.7,5.5c1.1,0,2.1,0.1,3.2,0c14.3-0.3,24.7-9.2,24.7-23.9v-12.8
				C-342.3-77.8-352.6-87.4-367.1-87.4 M-356.4-50.5c0,8-5.6,11.1-11.1,11.4c-0.3,0-1.8,0-2,0c-5.7-0.4-11.1-3.5-11.1-11.4v-12.9
				c0-8.2,5.5-11.1,11.1-11.5c0.7-0.1,1.3-0.1,2,0c5.6,0.4,11.2,3.3,11.1,11.5V-50.5z"/>
		</g>
		<g id="g3051_8_" transform="translate(558.0937,117.5499)">
			<path id="path3053_8_" inkscape:connector-curvature="0" class="st0" d="M-489.7-18.3l-27.2-30.3c1.4,0.1,2.7,0.1,4.1,0.1
				c9.3,0,20.9-5.9,21-20.8c0.1-17.9-14.8-22.4-28-22.4l-31.7-0.1l-0.2,73.4h14.3v-32.7l29.4,32.8L-489.7-18.3z M-537.2-79.2
				l17.2,0.1c7.9,0,15,2.5,15,10.1s-4.4,10.3-15,10.2h-17.2V-79.2z"/>
		</g>
	</g>
</g>
</svg>
